#!OML:ASF Y:\EmotionMaleHayes\Project 1\Capture day 1\Session 1\Male1.ASF
:FULLY-SPECIFIED
:DEGREES
1801
root 9.79826 16.7793 3.41258 907.933 68.7635 912.968
lowerback 8.23151 3.12228 1.46433
upperback 7.7781 4.65489 1.1587
thorax 3.4909 2.55662 0.161619
lowerneck -19.1252 1.73359 2.52421
upperneck 27.3668 3.46232 -3.81188
head 12.3423 1.51426 -1.26829
rclavicle -1.08338e-014 2.88238e-014
rhumerus -44.8514 35.5598 -111.161
rradius 122.105
rwrist -11.648
rhand -27.3677 -18.3846
rfingers 7.12502
rthumb -0.775263 -48.363
lclavicle -1.08338e-014 2.88238e-014
lhumerus -44.9359 -49.733 118.492
lradius 110.634
lwrist 27.389
lhand -28.1949 -44.585
lfingers 7.12502
lthumb -1.57418 -14.611
rfemur 3.04967 -2.90497 27.8905
rtibia 18.6976
rfoot -21.9817 -3.25291
rtoes -17.3659
lfemur -10.5762 -15.0629 -6.81211
ltibia 32.6983
lfoot -17.3185 0.448438
ltoes -20.8074
1802
root 9.76826 16.7799 3.41764 914.746 69.7026 920.386
lowerback 8.93698 3.07044 3.61359
upperback 7.70904 4.73543 1.7579
thorax 3.16067 2.68042 -0.461428
lowerneck -19.1456 1.71521 2.28978
upperneck 27.3016 3.39616 -3.50014
head 12.3068 1.49581 -1.12148
rclavicle 8.49804e-015 1.94809e-014
rhumerus -45.0461 35.7199 -111.5
rradius 122.107
rwrist -11.6165
rhand -27.5041 -18.3709
rfingers 7.12502
rthumb -0.906937 -48.3487
lclavicle 8.49804e-015 1.94809e-014
lhumerus -45.0903 -49.6879 118.47
lradius 110.703
lwrist 26.5441
lhand -28.4481 -45.1677
lfingers 7.12502
lthumb -1.8187 -15.1957
rfemur 2.58739 -1.10404 31.1796
rtibia 19.5474
rfoot -22.0052 -3.87441
rtoes -17.2942
lfemur -10.3963 -14.1642 -3.63574
ltibia 33.0164
lfoot -17.4568 -0.416645
ltoes -20.2326
1803
root 9.75967 16.7656 3.39442 915.64 70.5765 921.393
lowerback 9.07851 3.00281 3.59055
upperback 7.80799 4.65375 1.80419
thorax 3.17874 2.64161 -0.401477
lowerneck -19.3769 1.7202 2.34402
upperneck 27.3024 3.40688 -3.63656
head 12.3589 1.47945 -1.18041
rclavicle 1.57537e-014 1.53064e-014
rhumerus -45.1359 35.8157 -111.609
rradius 122.098
rwrist -11.4164
rhand -27.7244 -18.3985
rfingers 7.12502
rthumb -1.11975 -48.3753
lclavicle 1.57537e-014 1.53064e-014
lhumerus -45.1665 -49.7303 118.491
lradius 110.786
lwrist 25.5168
lhand -27.9738 -46.6964
lfingers 7.12502
lthumb -1.36064 -16.721
rfemur 2.5809 -0.480543 31.3069
rtibia 19.8477
rfoot -21.94 -3.58608
rtoes -16.4696
lfemur -10.0936 -14.1407 -3.68452
ltibia 33.2196
lfoot -17.6024 -0.891105
ltoes -19.8571
1804
root 9.77676 16.7391 3.34583 910.062 71.508 915.602
lowerback 8.79585 2.88735 1.6164
upperback 8.04057 4.3759 1.22854
thorax 3.46131 2.43195 0.138839
lowerneck -19.5656 1.76778 2.54671
upperneck 27.272 3.43364 -3.7948
head 12.3936 1.48314 -1.27062
rclavicle 3.37437e-014 7.15625e-015
rhumerus -45.1719 35.9504 -111.764
rradius 122.114
rwrist -11.5972
rhand -26.4357 -19.1924
rfingers 7.12502
rthumb 0.124887 -49.1721
lclavicle 3.37437e-014 7.15625e-015
lhumerus -45.2693 -49.8752 118.452
lradius 110.786
lwrist 24.1995
lhand -29.1853 -49.2082
lfingers 7.12502
lthumb -2.53062 -19.2434
rfemur 3.07174 -0.826501 28.5218
rtibia 19.6107
rfoot -21.7377 -2.55249
rtoes -14.9227
lfemur -9.48007 -14.9988 -6.76204
ltibia 33.1998
lfoot -17.8014 -0.649936
ltoes -20.4131
1805
root 9.75788 16.7428 3.3219 912.337 72.1498 917.718
lowerback 8.76628 2.70875 2.15447
upperback 8.00452 4.16081 1.27185
thorax 3.47277 2.34474 -0.102259
lowerneck -19.7098 1.81734 2.52479
upperneck 27.2089 3.44195 -3.65244
head 12.3946 1.49495 -1.21147
rclavicle -7.77745e-014 -1.19271e-015
rhumerus -45.1865 36.175 -111.957
rradius 122.134
rwrist -11.9919
rhand -26.3381 -19.5116
rfingers 7.12502
rthumb 0.219193 -49.4912
lclavicle -7.77745e-014 -1.19271e-015
lhumerus -45.1829 -50.0195 118.194
lradius 110.723
lwrist 22.9648
lhand -31.0024 -51.8776
lfingers 7.12502
lthumb -4.28544 -21.941
rfemur 2.5322 -0.384622 29.1042
rtibia 20.0543
rfoot -21.6702 -2.21415
rtoes -14.586
lfemur -9.68887 -14.9418 -6.13794
ltibia 33.437
lfoot -17.976 -0.422407
ltoes -20.934
1806
root 9.75954 16.7356 3.27467 909.349 73.1061 914.465
lowerback 8.47747 2.63224 1.10097
upperback 8.13106 3.99666 0.927106
thorax 3.71412 2.2222 0.156575
lowerneck -19.9152 1.8054 2.46656
upperneck 27.1587 3.39614 -3.58172
head 12.4122 1.46882 -1.182
rclavicle -4.96962e-016 6.16232e-015
rhumerus -45.077 36.3719 -111.91
rradius 122.06
rwrist -12.4409
rhand -26.6474 -19.5165
rfingers 7.12502
rthumb -0.0795246 -49.4963
lclavicle -4.96962e-016 6.16232e-015
lhumerus -45.0902 -50.1741 118.006
lradius 110.721
lwrist 21.9202
lhand -31.0316 -50.1448
lfingers 7.12502
lthumb -4.31361 -20.2087
rfemur 2.49536 -0.382891 27.4418
rtibia 20.1545
rfoot -21.6671 -1.38194
rtoes -14.0903
lfemur -9.41432 -15.2289 -7.85216
ltibia 33.5438
lfoot -18.3752 0.359621
ltoes -21.7578
1807
root 9.762 16.7292 3.23554 908.183 73.9666 913.227
lowerback 8.35388 2.58869 0.610429
upperback 8.17427 3.91034 0.783081
thorax 3.80509 2.15757 0.29294
lowerneck -19.7898 1.76321 2.55225
upperneck 26.9949 3.30234 -3.62869
head 12.3203 1.42808 -1.23048
rclavicle 4.88513e-014 -1.94809e-014
rhumerus -45.1537 36.2943 -111.889
rradius 122.047
rwrist -13.2291
rhand -26.5653 -19.6209
rfingers 7.12502
rthumb -0.000249202 -49.6006
lclavicle 4.88513e-014 -1.94809e-014
lhumerus -45.4071 -50.3233 118.179
lradius 110.789
lwrist 20.8087
lhand -30.8268 -51.8214
lfingers 7.12502
lthumb -4.11584 -21.8814
rfemur 2.49284 -0.143781 26.6828
rtibia 20.2787
rfoot -21.6312 -0.754932
rtoes -13.3582
lfemur -9.0694 -15.3274 -8.66682
ltibia 33.5292
lfoot -18.7093 1.02994
ltoes -22.4691
1808
root 9.7558 16.7248 3.20611 909.345 74.8248 914.375
lowerback 8.37167 2.56216 0.720377
upperback 8.15051 3.87344 0.820957
thorax 3.77445 2.14059 0.27065
lowerneck -19.6348 1.75579 2.61298
upperneck 26.8598 3.27068 -3.66676
head 12.2359 1.41489 -1.26101
rclavicle 3.90612e-014 -1.2921e-014
rhumerus -45.4237 36.0998 -112.031
rradius 122.189
rwrist -14.2239
rhand -26.1806 -19.8633
rfingers 7.12502
rthumb 0.37135 -49.8427
lclavicle 3.90612e-014 -1.2921e-014
lhumerus -45.5449 -50.4412 118.307
lradius 110.708
lwrist 19.6682
lhand -31.9105 -52.859
lfingers 7.12502
lthumb -5.16227 -22.9419
rfemur 2.26589 0.335923 26.8269
rtibia 20.6269
rfoot -21.6427 -0.486545
rtoes -13.9574
lfemur -8.83474 -15.0925 -8.51556
ltibia 33.4474
lfoot -18.7957 1.37185
ltoes -22.851
1809
root 9.74541 16.7208 3.17358 910.284 75.8332 915.212
lowerback 8.29438 2.61065 0.618509
upperback 8.19317 3.92705 0.902119
thorax 3.85002 2.15882 0.414423
lowerneck -19.8026 1.76755 2.56223
upperneck 26.8372 3.31144 -3.74259
head 12.2635 1.41151 -1.27418
rclavicle -1.04362e-015 3.04141e-014
rhumerus -45.5224 36.2606 -112.042
rradius 122.245
rwrist -15.1404
rhand -26.4814 -19.8797
rfingers 7.12502
rthumb 0.0808121 -49.8595
lclavicle -1.04362e-015 3.04141e-014
lhumerus -45.2334 -50.5447 118.274
lradius 110.475
lwrist 18.6415
lhand -33.7988 -53.2374
lfingers 7.12502
lthumb -6.98535 -23.3727
rfemur 1.90506 0.877371 26.785
rtibia 21.0637
rfoot -21.6364 -0.167122
rtoes -14.3552
lfemur -8.70171 -14.5989 -8.49751
ltibia 33.4509
lfoot -18.793 1.81578
ltoes -24.5941
